<svg width="690" height="292" viewBox="0 0 690 292" fill="none" xmlns="http://www.w3.org/2000/svg">
  <path fill-rule="evenodd" clip-rule="evenodd" d="M0 75C5.48201 78.401 12.54 82.045 17.946 84C24.235 86.274 40.076 62.863 47.946 62C59.261 60.759 71.466 84.468 79.946 82C83.198 81.054 100.534 69.704 114.946 68C123.307 67.012 127.211 73.269 135.946 75C179.138 83.561 228.298 83.456 260.946 75C279.696 70.144 308.697 60.566 334.946 61C357.448 61.372 376.371 72.478 402.661 62.094C411.824 58.475 419.618 45.225 427.946 41C437.265 36.272 446.997 40.493 454.946 35C467.645 26.225 476.507 14.925 489.946 8.99998C497.305 5.75598 507.801 5.26698 516.946 5.02798C522.008 4.89498 526.647 0.124984 530.946 0.999984C541.014 3.04798 549.472 12.609 558.946 17C568.816 21.574 585.637 13.789 594.946 17C601.962 19.42 601.402 32.792 608.946 36C618.969 40.262 638.86 36.233 648.946 41C665.497 48.822 672.294 65.861 690 75V292H0V75Z" fill="url(#paint0_linear)"/>
  <defs>
    <linearGradient id="paint0_linear" x1="0" y1="292" x2="0" y2="0" gradientUnits="userSpaceOnUse">
      <stop stop-color="#2E366F"/>
      <stop offset="1" stop-color="#404A9A"/>
    </linearGradient>
  </defs>
</svg>