<svg width="690" height="356" viewBox="0 0 690 356" fill="none" xmlns="http://www.w3.org/2000/svg">
  <path fill-rule="evenodd" clip-rule="evenodd" d="M690 69C678.369 72.673 667.732 78.672 656.946 81C638.484 84.984 626.335 70.478 610.946 71C591.762 71.651 600.724 93.142 563.946 84C556.497 82.148 541.629 67.277 530.946 65C524.55 63.637 523.077 70.842 516.946 70C508.693 68.867 500.983 71.197 495.628 71.614C477.544 73.02 484.605 83.397 464.765 84.93C452.69 85.863 454.961 85.562 447.947 79C425.784 58.268 423.729 61.166 392.946 77C389.555 78.745 383.322 61.821 365.946 54C350.011 46.827 322.208 61.438 309.946 55C305.696 52.768 296.225 40.001 290.946 37C286.235 34.321 285.771 41.428 280.946 39C264.813 30.881 250.878 3.596 238.946 0.999996C228.874 -1.192 220.345 20.544 211.946 22C205.435 23.129 200.403 16.268 184.947 23C175.69 27.032 181.476 39.556 174.947 39C152.72 37.107 153.341 41.475 150.946 48C146.858 59.139 132.744 59.927 122.947 61C115.367 61.83 114.885 35.59 102.947 36C87.063 36.545 85.414 60.597 76.946 59C33.409 50.787 61.893 77.944 31.946 75C15.604 73.393 21.328 63.645 14.946 65C3.03801 67.529 1.59301 69.028 0 69V349L690 356L690 69Z" fill="url(#paint0_linear)"/>
  <defs>
    <linearGradient id="paint0_linear" x1="0" y1="356" x2="0" y2="0" gradientUnits="userSpaceOnUse">
      <stop stop-color="#2C336A"/>
      <stop offset="1" stop-color="#2D346C"/>
    </linearGradient>
  </defs>
</svg>