<svg width="690" height="153" viewBox="0 0 690 153" fill="none" xmlns="http://www.w3.org/2000/svg">
  <path fill-rule="evenodd" clip-rule="evenodd" d="M0 40C17.38 35.843 28.757 20.074 44.946 15C55.894 11.569 50.619 0.114991 82.796 0.897991C95.925 1.21799 112.769 17.775 125.946 17C137.969 16.293 149.719 5.853 160.946 6C168.257 6.096 174.523 0.189997 181.651 0.234997C216.168 0.453997 198.862 22.899 287.946 25C302.61 25.346 327.396 13.403 355.946 14C379.62 14.495 406.33 27.515 427.946 28C433.83 28.132 440.347 20.894 446.946 21C457.29 21.166 467.369 28.681 471.946 29C488.627 30.162 500.533 14.307 513.946 14C549.183 13.193 548.978 33.851 565.946 30C571.224 28.802 573.512 22.489 579.946 21C589.141 18.872 593.615 21.211 602.947 20C616.715 18.213 617.432 -0.590003 646.946 3C667.666 5.52 674.905 31.458 690 40V153H0V40Z" fill="url(#paint0_linear)"/>
  <defs>
    <linearGradient id="paint0_linear" x1="0" y1="153" x2="0" y2="0" gradientUnits="userSpaceOnUse">
      <stop stop-color="#4D5ABB"/>
      <stop offset="1" stop-color="#6F82FF"/>
    </linearGradient>
  </defs>
</svg>